<svg width="71" height="36" viewBox="0 0 71 36" fill="none" xmlns="http://www.w3.org/2000/svg">
    <path d="M7.296 26.168C6.176 26.168 5.168 25.976 4.272 25.592C3.376 25.192 2.672 24.632 2.16 23.912C1.648 23.192 1.392 22.352 1.392 21.392H4.32C4.384 22.112 4.664 22.704 5.16 23.168C5.672 23.632 6.384 23.864 7.296 23.864C8.24 23.864 8.976 23.64 9.504 23.192C10.032 22.728 10.296 22.136 10.296 21.416C10.296 20.856 10.128 20.4 9.792 20.048C9.472 19.696 9.064 19.424 8.568 19.232C8.088 19.04 7.416 18.832 6.552 18.608C5.464 18.32 4.576 18.032 3.888 17.744C3.216 17.44 2.64 16.976 2.16 16.352C1.68 15.728 1.44 14.896 1.44 13.856C1.44 12.896 1.68 12.056 2.16 11.336C2.64 10.616 3.312 10.064 4.176 9.68C5.04 9.296 6.04 9.104 7.176 9.104C8.792 9.104 10.112 9.512 11.136 10.328C12.176 11.128 12.752 12.232 12.864 13.64H9.84C9.792 13.032 9.504 12.512 8.976 12.08C8.448 11.648 7.752 11.432 6.888 11.432C6.104 11.432 5.464 11.632 4.968 12.032C4.472 12.432 4.224 13.008 4.224 13.76C4.224 14.272 4.376 14.696 4.68 15.032C5 15.352 5.4 15.608 5.88 15.8C6.36 15.992 7.016 16.2 7.848 16.424C8.952 16.728 9.848 17.032 10.536 17.336C11.24 17.64 11.832 18.112 12.312 18.752C12.808 19.376 13.056 20.216 13.056 21.272C13.056 22.12 12.824 22.92 12.36 23.672C11.912 24.424 11.248 25.032 10.368 25.496C9.504 25.944 8.48 26.168 7.296 26.168ZM15.3724 19.328C15.3724 18 15.6444 16.824 16.1884 15.8C16.7484 14.776 17.5004 13.984 18.4444 13.424C19.4044 12.848 20.4604 12.56 21.6124 12.56C22.6524 12.56 23.5564 12.768 24.3244 13.184C25.1084 13.584 25.7324 14.088 26.1964 14.696V12.776H28.9564V26H26.1964V24.032C25.7324 24.656 25.1004 25.176 24.3004 25.592C23.5004 26.008 22.5884 26.216 21.5644 26.216C20.4284 26.216 19.3884 25.928 18.4444 25.352C17.5004 24.76 16.7484 23.944 16.1884 22.904C15.6444 21.848 15.3724 20.656 15.3724 19.328ZM26.1964 19.376C26.1964 18.464 26.0044 17.672 25.6204 17C25.2524 16.328 24.7644 15.816 24.1564 15.464C23.5484 15.112 22.8924 14.936 22.1884 14.936C21.4844 14.936 20.8284 15.112 20.2204 15.464C19.6124 15.8 19.1164 16.304 18.7324 16.976C18.3644 17.632 18.1804 18.416 18.1804 19.328C18.1804 20.24 18.3644 21.04 18.7324 21.728C19.1164 22.416 19.6124 22.944 20.2204 23.312C20.8444 23.664 21.5004 23.84 22.1884 23.84C22.8924 23.84 23.5484 23.664 24.1564 23.312C24.7644 22.96 25.2524 22.448 25.6204 21.776C26.0044 21.088 26.1964 20.288 26.1964 19.376ZM35.286 8.24V26H32.55V8.24H35.286ZM50.9981 19.064C50.9981 19.56 50.9661 20.008 50.9021 20.408H40.7981C40.8781 21.464 41.2701 22.312 41.9741 22.952C42.6781 23.592 43.5421 23.912 44.5661 23.912C46.0381 23.912 47.0781 23.296 47.6861 22.064H50.6381C50.2381 23.28 49.5101 24.28 48.4541 25.064C47.4141 25.832 46.1181 26.216 44.5661 26.216C43.3021 26.216 42.1661 25.936 41.1581 25.376C40.1661 24.8 39.3821 24 38.8061 22.976C38.2461 21.936 37.9661 20.736 37.9661 19.376C37.9661 18.016 38.2381 16.824 38.7821 15.8C39.3421 14.76 40.1181 13.96 41.1101 13.4C42.1181 12.84 43.2701 12.56 44.5661 12.56C45.8141 12.56 46.9261 12.832 47.9021 13.376C48.8781 13.92 49.6381 14.688 50.1821 15.68C50.7261 16.656 50.9981 17.784 50.9981 19.064ZM48.1421 18.2C48.1261 17.192 47.7661 16.384 47.0621 15.776C46.3581 15.168 45.4861 14.864 44.4461 14.864C43.5021 14.864 42.6941 15.168 42.0221 15.776C41.3501 16.368 40.9501 17.176 40.8221 18.2H48.1421ZM58.4906 26.216C57.4506 26.216 56.5146 26.032 55.6826 25.664C54.8666 25.28 54.2186 24.768 53.7386 24.128C53.2586 23.472 53.0026 22.744 52.9706 21.944H55.8026C55.8506 22.504 56.1146 22.976 56.5946 23.36C57.0906 23.728 57.7066 23.912 58.4426 23.912C59.2106 23.912 59.8026 23.768 60.2186 23.48C60.6506 23.176 60.8666 22.792 60.8666 22.328C60.8666 21.832 60.6266 21.464 60.1466 21.224C59.6826 20.984 58.9386 20.72 57.9146 20.432C56.9226 20.16 56.1146 19.896 55.4906 19.64C54.8666 19.384 54.3226 18.992 53.8586 18.464C53.4106 17.936 53.1866 17.24 53.1866 16.376C53.1866 15.672 53.3946 15.032 53.8106 14.456C54.2266 13.864 54.8186 13.4 55.5866 13.064C56.3706 12.728 57.2666 12.56 58.2746 12.56C59.7786 12.56 60.9866 12.944 61.8986 13.712C62.8266 14.464 63.3226 15.496 63.3866 16.808H60.6506C60.6026 16.216 60.3626 15.744 59.9306 15.392C59.4986 15.04 58.9146 14.864 58.1786 14.864C57.4586 14.864 56.9066 15 56.5226 15.272C56.1386 15.544 55.9466 15.904 55.9466 16.352C55.9466 16.704 56.0746 17 56.3306 17.24C56.5866 17.48 56.8986 17.672 57.2666 17.816C57.6346 17.944 58.1786 18.112 58.8986 18.32C59.8586 18.576 60.6426 18.84 61.2506 19.112C61.8746 19.368 62.4106 19.752 62.8586 20.264C63.3066 20.776 63.5386 21.456 63.5546 22.304C63.5546 23.056 63.3466 23.728 62.9306 24.32C62.5146 24.912 61.9226 25.376 61.1546 25.712C60.4026 26.048 59.5146 26.216 58.4906 26.216ZM67.6149 26.168C67.1189 26.168 66.7029 26 66.3669 25.664C66.0309 25.328 65.8629 24.912 65.8629 24.416C65.8629 23.92 66.0309 23.504 66.3669 23.168C66.7029 22.832 67.1189 22.664 67.6149 22.664C68.0949 22.664 68.5029 22.832 68.8389 23.168C69.1749 23.504 69.3429 23.92 69.3429 24.416C69.3429 24.912 69.1749 25.328 68.8389 25.664C68.5029 26 68.0949 26.168 67.6149 26.168Z" fill="#013CC6"/>
</svg>